<svg width="82" height="68" viewBox="0 0 82 68" fill="none" xmlns="http://www.w3.org/2000/svg">
<g clip-path="url(#clip0_164_3)">
<path d="M18.0071 0L37.0715 18.525C32.7983 19.5469 29.1834 22.1956 26.9637 25.7575C26.1177 27.1133 25.4755 28.6014 25.0745 30.1826L20.5207 25.7575L6.01018 11.6575L18.0071 0Z" fill="#E6E6E6"/>
<path d="M75.9898 56.3425L63.9929 68L44.9286 49.4749C49.2017 48.4531 52.8166 45.8044 55.0363 42.2425C55.8823 40.8867 56.5245 39.3986 56.9255 37.8174L75.9898 56.3425Z" fill="#E6E6E6"/>
<path d="M37.0714 49.4749L18.0071 68L6.01018 56.3425L25.0745 37.8174C25.4755 39.3986 26.1177 40.8867 26.9637 42.2425C29.1834 45.8044 32.7983 48.4531 37.0714 49.4749Z" fill="#E6E6E6"/>
<path d="M75.9898 11.6575L61.4794 25.7575L56.9255 30.1826C56.5245 28.6014 55.8823 27.1133 55.0363 25.7575C52.8166 22.1956 49.2017 19.5469 44.9286 18.525L63.9929 0L75.9898 11.6575Z" fill="#E6E6E6"/>
<path d="M25.0745 30.1826C24.7656 31.4061 24.6013 32.6844 24.6013 34C24.6013 35.3157 24.7656 36.5939 25.0745 37.8174C25.4755 39.3986 26.1177 40.8867 26.9637 42.2425H0V25.7575H26.9637C26.1177 27.1133 25.4755 28.6014 25.0745 30.1826Z" fill="#E6E6E6"/>
<path d="M82 25.7575V42.2425H55.0363C55.8823 40.8867 56.5245 39.3986 56.9254 37.8174C57.2344 36.5939 57.3987 35.3157 57.3987 34C57.3987 32.6844 57.2344 31.4061 56.9254 30.1826C56.5245 28.6014 55.8823 27.1133 55.0363 25.7575H82Z" fill="#E6E6E6"/>
<path d="M51.5328 34C51.5328 34.845 51.4272 35.6661 51.2288 36.4519C50.9713 37.4675 50.5588 38.4233 50.0154 39.2941C48.5897 41.5819 46.2679 43.2831 43.5233 43.9395C42.7145 44.1323 41.8696 44.2348 41 44.2348C40.1303 44.2348 39.2854 44.1323 38.4767 43.9395C35.7321 43.2831 33.4102 41.5819 31.9846 39.2941C31.4412 38.4233 31.0287 37.4675 30.7712 36.4519C30.5728 35.6661 30.4672 34.845 30.4672 34C30.4672 33.155 30.5728 32.334 30.7712 31.5481C31.0287 30.5325 31.4412 29.5767 31.9846 28.7059C33.4102 26.4181 35.7321 24.7169 38.4767 24.0606C39.2854 23.8677 40.1303 23.7652 41 23.7652C41.8696 23.7652 42.7145 23.8677 43.5233 24.0606C46.2679 24.7169 48.5897 26.4181 50.0154 28.7059C50.5588 29.5767 50.9713 30.5325 51.2288 31.5481C51.4272 32.334 51.5328 33.155 51.5328 34Z" fill="#E6E6E6"/>
</g>
<defs>
<clipPath id="clip0_164_3">
<rect width="82" height="68" fill="white"/>
</clipPath>
</defs>
</svg>
