<svg width="83" height="68" viewBox="0 0 83 68" fill="none" xmlns="http://www.w3.org/2000/svg">
<g clip-path="url(#clip0_12_83)">
<path d="M18.5703 0L37.6347 18.525C33.3616 19.5469 29.7466 22.1956 27.5269 25.7575C26.681 27.1133 26.0387 28.6014 25.6378 30.1826L21.0839 25.7575L6.57342 11.6575L18.5703 0Z" fill="#1E1E1E"/>
<path d="M76.5531 56.3424L64.5561 68L45.4918 49.4749C49.7649 48.453 53.3799 45.8044 55.5995 42.2424C56.4455 40.8866 57.0878 39.3985 57.4887 37.8174L76.5531 56.3424Z" fill="#1E1E1E"/>
<path d="M37.6347 49.4749L18.5703 68L6.57342 56.3424L25.6378 37.8174C26.0387 39.3985 26.6809 40.8866 27.5269 42.2424C29.7466 45.8044 33.3615 48.453 37.6347 49.4749Z" fill="#1E1E1E"/>
<path d="M76.5531 11.6575L62.0426 25.7575L57.4887 30.1826C57.0878 28.6014 56.4455 27.1133 55.5995 25.7575C53.3799 22.1956 49.7649 19.5469 45.4918 18.525L64.5561 0L76.5531 11.6575Z" fill="#1E1E1E"/>
<path d="M25.6378 30.1826C25.3289 31.4061 25.1645 32.6843 25.1645 34C25.1645 35.3156 25.3289 36.5939 25.6378 37.8174C26.0387 39.3986 26.6809 40.8867 27.5269 42.2425H0.563232V25.7575H27.5269C26.6809 27.1133 26.0387 28.6014 25.6378 30.1826Z" fill="#1E1E1E"/>
<path d="M82.5632 25.7575V42.2425H55.5995C56.4455 40.8867 57.0878 39.3986 57.4887 37.8174C57.7976 36.5939 57.9619 35.3156 57.9619 34C57.9619 32.6843 57.7976 31.4061 57.4887 30.1826C57.0878 28.6014 56.4455 27.1133 55.5995 25.7575H82.5632Z" fill="#1E1E1E"/>
<path d="M52.096 34C52.096 34.845 51.9905 35.6661 51.792 36.4519C51.5345 37.4675 51.122 38.4233 50.5787 39.2941C49.153 41.5819 46.8311 43.2831 44.0865 43.9395C43.2778 44.1323 42.4329 44.2348 41.5632 44.2348C40.6936 44.2348 39.8487 44.1323 39.04 43.9395C36.2953 43.2831 33.9735 41.5819 32.5478 39.2941C32.0044 38.4233 31.5919 37.4675 31.3344 36.4519C31.136 35.6661 31.0305 34.845 31.0305 34C31.0305 33.155 31.136 32.334 31.3344 31.5481C31.5919 30.5325 32.0044 29.5767 32.5478 28.7059C33.9735 26.4181 36.2953 24.7169 39.04 24.0606C39.8487 23.8677 40.6936 23.7652 41.5632 23.7652C42.4329 23.7652 43.2778 23.8677 44.0865 24.0606C46.8311 24.7169 49.153 26.4181 50.5787 28.7059C51.122 29.5767 51.5345 30.5325 51.792 31.5481C51.9905 32.334 52.096 33.155 52.096 34Z" fill="#1E1E1E"/>
</g>
<defs>
<clipPath id="clip0_12_83">
<rect width="82" height="68" fill="white" transform="translate(0.563232)"/>
</clipPath>
</defs>
</svg>
